<?xml version="1.0" encoding="utf-8"?>
<!-- Generator: Adobe Illustrator 27.5.0, SVG Export Plug-In . SVG Version: 6.00 Build 0)  -->
<svg version="1.1" id="Capa_1" xmlns="http://www.w3.org/2000/svg" xmlns:xlink="http://www.w3.org/1999/xlink" x="0px" y="0px"
	 viewBox="0 0 2122 2122" style="enable-background:new 0 0 2122 2122;" xml:space="preserve">
<g>
	<path style="fill:#81BC48;" d="M1060.661,212.132c-24.188,0-48.122,1.069-71.798,3.052c-1.04,9.666-1.744,16.874-1.873,19.081
		c-2.533,43.311,5.201,75.968,43.422,100.195c6.088,3.857,12.58,7.301,19.644,8.731c7.942,1.605,25.51,4.77,33.34,3.603
		c7.898-1.179,11.077-10.405,18.863-12.276c3.951-0.95,7.379,4.215,11.61,2.597c3.715-1.423,4.146-6.315,6.814-8.726
		c6.979-6.314,6.339-8.117,16.509-7.32c8.953,0.702,19.25,5.72,17.963,15.861c-0.624,4.906-2.484,10.085-0.458,14.597
		c0.996,2.215,2.841,3.971,3.778,6.21c1.206,2.877,0.77,6.165,0.054,9.201c-2.134,9.062-6.507,17.423-9.547,26.224
		c-3.04,8.799-4.694,18.641-1.303,27.311c3.394,8.67,13.235,15.283,22.09,12.404c5.294-1.72,9.657-6.453,15.223-6.446
		c6.809,0.009,12.614,7.243,19.235,5.662c4.567-1.092,7.064-5.852,10.477-9.077c7.396-6.999,19.267-6.533,28.818-2.999
		c9.549,3.535,18.046,9.591,27.722,12.765c23.164,7.596,37.983-20.548,58.998-5.881c12.049,8.409,21.859,32.877,40.141,25.939
		c3.219-1.223,6.183-3.323,9.613-3.639c7.379-0.685,11.985,6.982,18.624,7.257c11.25,0.463,7.527-5.223,13.861-10.804
		c11.569-10.195,36.103,1.35,51.695,2.892c10.682,1.055,25.269-1.951,25.567-12.68c9.22,1.557,14.102,11.345,19.644,18.877
		c5.539,7.532,17.208,13.571,23.513,6.667c12.857,7.204,19.552,23.849,15.264,37.949c-1.291,4.239-3.474,8.494-2.711,12.86
		c0.779,4.46,4.448,7.822,6.207,11.995c3.552,8.433-1.215,17.788-4.845,26.19c-3.63,8.4-5.515,19.73,1.664,25.403
		c5.177,4.09,12.748,3.138,18.694,5.998c4.785,2.304,8.039,6.823,12.012,10.348c11.252,9.981,25.486,6.341,37.018,13.167
		c8.792,5.204,11.291,15.861,15.627,24.446c4.488,8.889,12.295,16.051,21.537,19.759c3.252,1.303,6.858,2.195,10.246,1.301
		c2.468-0.65,4.631-2.202,7.111-2.796c13.208-3.15,18.256,19.805,31.53,22.655c10.034,2.156,20.436-8.388,29.807-4.202
		c9.245,4.129,9.934,19.773,19.846,21.839c8.46,1.764,16.777-8.482,24.711-5.06c3.016,1.301,4.904,4.261,7.262,6.548
		c11.951,11.595,25.53,4.889,37.147-6.044C1682.219,404.263,1393.901,212.132,1060.661,212.132z"/>
	<path style="fill:#81BC48;" d="M1885.449,860.793c-2.877-0.003-5.812,0.438-8.536-0.446c-5.506-1.788-8.67-8.553-14.417-9.228
		c-4.446-0.521-8.59,2.926-13.052,2.609c-4.029-0.285-7.128-3.486-10.149-6.168c-3.018-2.682-7.13-5.15-10.887-3.671
		c-1.364,0.538-2.543,1.567-3.99,1.807c-2.27,0.38-4.37-1.272-6.648-1.605c-3.114-0.453-6.005,1.567-9.082,2.222
		c-3.038,0.646-6.826,0.224-8.595,2.777c-1.013,1.461-0.957,3.493-2.066,4.887c-1.023,1.286-2.826,1.742-3.88,3.003
		c-1.427,1.705-1.361,4.677-3.406,5.552c-0.697,0.297-1.515,0.265-2.163,0.658c-1.347,0.816-1.237,2.948-2.458,3.942
		c-0.713,0.582-1.717,0.636-2.538,1.055c-2.283,1.169-3.586,3.661-6.09,4.787c-2.558,1.148-5.413,1.525-8.171,1.866
		c-0.979,0.119-2.015,0.234-2.921-0.156c-1.747-0.75-2.521-3.14-4.387-3.501c-1.235-0.239-2.594,0.526-3.722-0.032
		c-1.028-0.506-1.333-1.873-2.26-2.548c-0.711-0.514-1.657-0.536-2.478-0.853c-1.174-0.453-2.022-1.481-2.753-2.507
		c-2.097-2.95-3.69-6.254-4.694-9.73c-0.448-1.547-0.799-3.174-1.756-4.473c-0.955-1.296-2.743-2.158-4.207-1.491
		c-1.089,0.497-1.942,1.761-3.126,1.583c-0.653-0.1-1.15-0.633-1.766-0.872c-2.49-0.962-4.475,3.082-7.137,2.875
		c-1.184-0.093-2.122-1.023-3.245-1.41c-3.262-1.125-6.37,2.516-9.822,2.473c-2.285-0.029-4.258-1.676-6.524-1.993
		c-3.438-0.477-6.918,2.173-10.227,1.12c-2.792-0.886-4.416-4.149-7.284-4.741c-1.822-0.378-3.829,0.419-5.522-0.348
		c-2.811-1.274-2.606-5.676-5.108-7.481c-1.082-0.782-2.524-0.95-3.574-1.774c-2.629-2.061-1.493-6.965-4.298-8.78
		c-0.935-0.607-2.178-0.738-2.931-1.559c-0.429-0.467-0.631-1.096-0.801-1.708c-0.767-2.736-1.05-5.508-1.074-8.341
		c-0.019-2.256-0.728-4.146-1.084-6.365c-1.257-7.856-1.995-21.133-8.512-26.553c-4.102-3.413-10.195-4.229-15.052-2.014
		c-3.182,1.452-5.707,4.003-8.585,5.995c-2.874,1.993-6.524,3.459-9.834,2.324c-3.68-1.26-6.165-5.477-10.056-5.598
		c-2.755-0.085-5.037,1.949-7.32,3.493c-2.28,1.545-5.552,2.612-7.62,0.792c-0.653-0.577-1.077-1.369-1.672-2.005
		c-2.701-2.885-7.449-1.589-11.105-0.085l-15.347,6.3c-1.184,0.487-2.431,0.981-3.703,0.828c-1.964-0.236-3.379-1.908-5.001-3.04
		c-5.362-3.737-12.816-1.393-18.39,2.02c-5.576,3.413-10.95,7.925-17.469,8.424c-2.567,0.197-5.181-0.258-7.712,0.226
		c-2.617,0.499-4.962,1.971-7.562,2.555c-2.056,0.461-4.231,0.356-6.219,1.055c-5.067,1.781-7.055,7.861-11.135,11.357
		c-2.351,2.012-5.406,3.16-7.489,5.45c-1.54,1.695-2.414,3.875-3.257,6.007c-1.988,5.028-3.978,10.053-5.966,15.081
		c-0.884,2.234-1.778,4.487-3.118,6.482c-1.861,2.765-4.611,5.111-5.32,8.368c-0.634,2.914,0.511,6.083-0.529,8.879
		c-0.892,2.397-3.196,3.978-4.463,6.202c-0.962,1.686-1.279,3.647-1.774,5.523c-4.96,18.728-26.458,29.442-29.296,49.072
		c-1.077,7.457,1.062,15.269-1.075,22.492c-3.142,10.624-14.151,16.426-22.353,23.873c-18.424,16.731-23.237,46.587-11.006,68.261
		c-14.672,16.906-13.008,42.952-4.141,63.505c8.868,20.553,23.679,37.956,34.188,57.722c6.867,12.916,11.963,26.948,21.082,38.389
		c9.115,11.44,23.798,20.078,38.048,16.768c9.162-2.129,17.947-8.96,26.999-6.392c10.663,3.023,14.821,17.452,25.459,20.558
		c15.259,4.453,26.409-17.086,42.217-18.755c16.499-1.742,32.26,18.711,46.882,10.87c7.49-4.017,10.801-14.368,19.06-16.38
		c8.134-1.978,15.301,5.325,20.494,11.89c9.61,12.143,19.218,24.287,28.826,36.431c3.976,5.023,8.083,10.331,9.186,16.643
		c1.07,6.109-0.828,12.29-2.075,18.366c-2.994,14.592-2.229,29.939,2.2,44.158c3.862,12.399,10.419,23.866,13.776,36.409
		c3.352,12.533,3.388,25.681,3.537,38.656c0.585,51.588,3.25,103.154,7.988,154.528c0.273,2.967,0.882,6.231,1.978,9.118
		c109.612-142.955,174.804-321.758,174.804-515.816C1909.189,991.809,1900.928,924.893,1885.449,860.793z"/>
	<path style="fill:#17A9E2;" d="M1821.031,683.766c-11.618,10.933-25.196,17.639-37.147,6.044c-2.358-2.287-4.246-5.247-7.262-6.548
		c-7.934-3.422-16.251,6.823-24.711,5.06c-9.912-2.066-10.602-17.71-19.846-21.839c-9.371-4.185-19.774,6.358-29.807,4.202
		c-13.274-2.85-18.322-25.805-31.53-22.655c-2.48,0.594-4.643,2.146-7.111,2.796c-3.389,0.894-6.994,0.003-10.246-1.301
		c-9.242-3.708-17.049-10.87-21.537-19.759c-4.336-8.585-6.836-19.242-15.627-24.446c-11.532-6.826-25.766-3.186-37.018-13.167
		c-3.973-3.525-7.228-8.044-12.012-10.348c-5.946-2.86-13.518-1.908-18.694-5.998c-7.179-5.674-5.293-17.004-1.664-25.403
		c3.63-8.402,8.397-17.756,4.845-26.19c-1.759-4.173-5.428-7.535-6.207-11.995c-0.763-4.365,1.42-8.621,2.711-12.86
		c4.287-14.1-2.407-30.745-15.264-37.949c-6.305,6.904-17.974,0.865-23.513-6.667c-5.542-7.533-10.424-17.32-19.644-18.877
		c-0.297,10.728-14.884,13.734-25.567,12.68c-15.593-1.542-40.126-13.086-51.695-2.892c-6.334,5.581-2.611,11.267-13.861,10.804
		c-6.638-0.275-11.245-7.941-18.624-7.257c-3.43,0.316-6.394,2.416-9.613,3.639c-18.282,6.938-28.092-17.53-40.141-25.939
		c-21.016-14.667-35.834,13.476-58.998,5.881c-9.676-3.174-18.173-9.23-27.722-12.765c-9.552-3.534-21.422-4-28.818,2.999
		c-3.413,3.225-5.91,7.985-10.477,9.077c-6.621,1.581-12.427-5.652-19.235-5.662c-5.566-0.008-9.929,4.726-15.223,6.446
		c-8.855,2.879-18.696-3.734-22.09-12.404c-3.391-8.67-1.737-18.512,1.303-27.311c3.04-8.801,7.413-17.162,9.547-26.224
		c0.716-3.035,1.152-6.324-0.054-9.201c-0.938-2.239-2.782-3.995-3.778-6.21c-2.027-4.512-0.166-9.691,0.458-14.597
		c1.286-10.141-9.011-15.159-17.963-15.861c-10.17-0.796-9.53,1.006-16.509,7.32c-2.668,2.412-3.099,7.303-6.814,8.726
		c-4.231,1.617-7.659-3.547-11.61-2.597c-7.786,1.871-10.965,11.097-18.863,12.276c-7.829,1.167-25.398-1.998-33.34-3.603
		c-7.064-1.43-13.557-4.874-19.644-8.731c-38.221-24.226-45.956-56.884-43.422-100.195c0.129-2.207,0.833-9.415,1.873-19.081
		c-155.462,13.028-299.021,67.912-419.31,153.43c6.67-0.017,13.138,1.635,18.424,5.756c6.051,4.719,10.309,12.275,17.708,14.314
		c7.798,2.148,15.549-2.716,22.974-5.922c25.919-11.184,18.277,18.862,36.877,24.814c1.21,0.387,2.708,0.602,3.6-0.304
		c0.602-0.609,0.719-1.533,1.109-2.292c1.876-3.671,7.495-1.401,11.498-2.382c5.532-1.354,7.535-9.147,13.064-10.502
		c3.832-0.935,7.849,1.949,9.228,5.644c1.376,3.698,0.631,7.871-0.831,11.535c5.715-0.752,12.794-0.896,15.78,4.037
		c0.916,1.515,1.391,3.459,2.929,4.338c0.945,0.539,2.112,0.548,3.086,1.036c1.155,0.577,1.885,1.742,2.509,2.872
		c10.719,19.462,2.974,28.037-14.86,37.221c-18.996,9.781-34.918,25.43-45.028,44.256c19.747-3.761,40.989,11.902,43.235,31.88
		c6.365-5.929,16.826-2.996,24.088,1.796c7.261,4.794,14.109,11.328,22.782,12.039c2.943,0.241,5.98-0.221,8.816,0.609
		c16.302,4.77,4.494,39.249,21.232,42.138c3.201,0.551,6.473-0.558,9.31-2.134c12.39-6.879,18.076-21.919,18.928-36.066
		c0.85-14.148-2.117-28.248-2.326-42.419c-0.285-19.342,7.101-41.54,25.327-48.022c13.101-4.658,28.083,0.567,38.602,9.656
		c10.521,9.091,17.483,21.513,24.232,33.669c8.662-9.038,17.325-18.078,25.988-27.116c2.026-2.114,4.377-4.377,7.305-4.426
		c2.809-0.046,5.189,1.981,7.121,4.017c12.458,13.133,18.461,32.117,15.82,50.021c5.279-5.318,14.363-6.302,20.658-2.241
		c6.295,4.064,9.138,12.746,6.465,19.747c-2.127,5.576-7.184,11.895-3.44,16.543c3.498,4.341,10.548,1.55,15.924,3.026
		c11.432,3.138,8.024,20.221,2.156,30.524l12.446,6.964c-3.101,16.697-11.881,37.905-28.748,35.917
		c-19.783-2.329-23.391-34.814-42.931-38.684c-12.753-2.529-24.743,10.984-23.676,23.941c1.065,12.955,11.924,23.488,24.158,27.888
		c12.236,4.397,25.647,3.798,38.592,2.582c6.314,10.996-2.68,24.531-12.482,32.575c-16.526,13.564-36.936,22.341-58.146,25.006
		c3.204-10.528,3.866-25.922-6.845-28.453c-9.827-2.324-16.745,10.219-16.46,20.314c0.285,10.092,3.788,20.867-0.826,29.851
		c-7.886,15.364-30.499,12.029-46.831,6.414c-1.615,34.183-5.82,73.32-33.866,92.928c-10.843,16.952-22.695,33.259-35.477,48.801
		c-5.062,6.161-10.563,12.414-17.946,15.418c-7.386,3.004-9.055,4.375-13.308-2.368c-12.577-2.594-25.155-5.186-37.735-7.778
		c-25.123,11.496-50.246,22.989-75.369,34.485c-7.231,3.308-14.872,6.967-19.067,13.722c-6.37,10.258-2.577,23.532,1.383,34.943
		c7.861,22.643,15.722,45.283,23.586,67.927c1.417,4.09,3.096,8.507,6.811,10.723c9.893,5.905,21.939-8.826,32.911-5.313
		c10.048,3.22,10.689,18.691,20.063,23.539c8.058,4.168,19.154-1.41,26.438,4c9.274,6.887,3.408,24.731,13.218,30.835
		c4.166,2.592,9.883,1.927,13.754,4.946c5.679,4.426,3.89,13.161,4.178,20.358c0.375,9.311,5.399,17.674,12.21,23.783
		c3.564,3.198,7.547,5.491,11.759,7.703c3.454,1.814,7.328,5.486,11.435,4.965c1.467-0.185,2.858-0.77,4.317-0.996
		c3.437-0.531,6.819,0.945,10.207,1.712c5.113,1.157,10.436,0.702,15.659,0.242c2.716-0.242,5.508-0.502,7.942-1.73
		c5.691-2.875,7.613-9.837,10.239-15.647c3.527-7.8,9.296-14.573,16.436-19.294c1.791-1.184,3.815-2.278,5.954-2.105
		c2.139,0.176,4.239,2.156,3.759,4.249c-0.217,0.95-0.919,1.829-0.753,2.791c0.302,1.766,2.838,1.793,4.302,2.828
		c2.351,1.661,1.34,5.323-0.01,7.866c-1.347,2.543-2.701,5.969-0.658,7.995c1.625,1.613,4.587,1.26,6.078,2.996
		c1.471,1.72,0.721,4.587,2.144,6.349c0.974,1.208,2.658,1.515,4.007,2.277c3.113,1.757,4.183,5.715,6.694,8.261
		c2.543,2.58,6.653,3.474,10.039,2.188c3.386-1.287,5.864-4.682,6.056-8.302c0.063-1.203-0.102-2.444,0.255-3.596
		c0.945-3.043,5.942-3.564,7.496-0.784c0.684,1.225,0.699,2.704,1.106,4.046c1.108,3.651,3.522,1.437,5.909,2.382
		c2.036,0.809,3.656,2.48,5.786,3.264c5.491,2.022,12.061,1.348,16.324-2.918c0.923-0.923,1.871-2.052,3.174-2.127
		c1.23-0.071,2.276,0.838,3.177,1.678c12.241,11.43,25.842,21.403,40.426,29.639c4.833,2.729,10.005,5.484,12.899,10.22
		c1.737,2.843,3.035,6.662,6.302,7.31c3.376,0.672,6.344-2.682,9.783-2.782c6.48-0.188,8.234,10.014,14.382,12.063
		c3.937,1.313,8.46-1.206,12.309,0.343c4.141,1.669,6.336,7.603,10.792,7.308c3.761-0.248,5.559-4.831,8.865-6.643
		c3.456-1.895,7.993-0.265,10.623,2.67c4.346,4.85,6.419,12.823,9.82,18.514c4.098,6.855,8.665,13.427,13.656,19.664
		c9.567,11.949,20.687,22.658,33.021,31.727c4.653,3.422,9.591,6.667,15.179,8.124c15.705,4.093,38.904-3.306,44.083,12.078
		c1.888-10.933,18.243-13.5,26.719-6.341c8.475,7.157,10.592,19.25,11.215,30.326c1.902,33.764-5.089,67.991-20.078,98.304
		c-5.235,10.587-11.481,23.165-5.678,33.455c3.378,5.988,10,9.267,14.892,14.097c11.927,11.771,11.883,32.08,3.454,46.56
		c-8.431,14.482-23.412,23.968-38.818,30.555c-6.224,2.663-12.809,5.077-17.591,9.866c-6.38,6.395-8.709,16.229-15.768,21.861
		c-11.243,8.972-31.106,4.736-38.514,17.062c-4.005,6.663-2.153,15.089-2.09,22.862c0.309,39.006-43.988,61.554-62.848,95.701
		c-7.198,13.033-11.003,28.455-21.888,38.616c-14.463,13.5-39.388,15.723-47.61,33.717c-4.599,10.073-2.112,21.781-2.794,32.835
		c-1.398,22.729-16.139,42.139-30.263,60.003c-0.499,0.631-0.999,1.264-1.498,1.895c42.051,6.411,85.12,9.742,128.964,9.742
		c274.57,0,518.633-130.451,673.724-332.711c-1.096-2.887-1.705-6.151-1.978-9.118c-4.738-51.374-7.403-102.94-7.988-154.528
		c-0.148-12.974-0.185-26.122-3.537-38.656c-3.357-12.543-9.915-24.01-13.776-36.409c-4.429-14.219-5.194-29.567-2.2-44.158
		c1.247-6.076,3.145-12.256,2.075-18.366c-1.104-6.312-5.211-11.62-9.186-16.643c-9.608-12.144-19.215-24.288-28.826-36.431
		c-5.194-6.565-12.361-13.869-20.494-11.89c-8.258,2.012-11.569,12.363-19.06,16.38c-14.621,7.841-30.383-12.612-46.882-10.87
		c-15.808,1.669-26.957,23.208-42.217,18.755c-10.638-3.106-14.796-17.534-25.459-20.558c-9.053-2.567-17.837,4.263-26.999,6.392
		c-14.251,3.31-28.933-5.328-38.048-16.768c-9.118-11.442-14.215-25.473-21.082-38.389c-10.509-19.766-25.32-37.169-34.188-57.722
		c-8.867-20.553-10.531-46.6,4.141-63.505c-12.231-21.674-7.418-51.53,11.006-68.261c8.202-7.447,19.211-13.249,22.353-23.873
		c2.137-7.223-0.002-15.036,1.075-22.492c2.838-19.63,24.336-30.343,29.296-49.072c0.495-1.876,0.811-3.837,1.774-5.523
		c1.267-2.224,3.571-3.805,4.463-6.202c1.04-2.797-0.105-5.966,0.529-8.879c0.709-3.257,3.459-5.603,5.32-8.368
		c1.34-1.995,2.234-4.248,3.118-6.482c1.988-5.028,3.978-10.053,5.966-15.081c0.843-2.132,1.717-4.312,3.257-6.007
		c2.083-2.29,5.138-3.437,7.489-5.45c4.08-3.496,6.068-9.576,11.135-11.357c1.988-0.699,4.163-0.594,6.219-1.055
		c2.599-0.585,4.945-2.056,7.562-2.555c2.531-0.485,5.145-0.029,7.712-0.226c6.519-0.499,11.893-5.011,17.469-8.424
		c5.574-3.413,13.028-5.756,18.39-2.02c1.622,1.133,3.037,2.804,5.001,3.04c1.272,0.153,2.519-0.341,3.703-0.828l15.347-6.3
		c3.656-1.503,8.404-2.799,11.105,0.085c0.595,0.636,1.018,1.427,1.672,2.005c2.068,1.82,5.34,0.753,7.62-0.792
		c2.283-1.545,4.566-3.579,7.32-3.493c3.891,0.122,6.375,4.339,10.056,5.598c3.311,1.135,6.96-0.331,9.834-2.324
		c2.877-1.993,5.403-4.544,8.585-5.995c4.858-2.214,10.95-1.398,15.052,2.014c6.517,5.42,7.255,18.697,8.512,26.553
		c0.356,2.219,1.065,4.109,1.084,6.365c0.025,2.833,0.307,5.605,1.074,8.341c0.171,0.612,0.373,1.24,0.801,1.708
		c0.753,0.821,1.995,0.952,2.931,1.559c2.804,1.815,1.669,6.719,4.298,8.78c1.05,0.823,2.492,0.991,3.574,1.774
		c2.502,1.805,2.297,6.207,5.108,7.481c1.693,0.767,3.7-0.029,5.522,0.348c2.868,0.592,4.492,3.854,7.284,4.741
		c3.308,1.052,6.789-1.598,10.227-1.12c2.266,0.317,4.239,1.963,6.524,1.993c3.452,0.044,6.561-3.598,9.822-2.473
		c1.123,0.387,2.061,1.318,3.245,1.41c2.663,0.207,4.648-3.837,7.137-2.875c0.617,0.239,1.114,0.772,1.766,0.872
		c1.184,0.178,2.036-1.086,3.126-1.583c1.464-0.667,3.252,0.195,4.207,1.491c0.957,1.298,1.308,2.926,1.756,4.473
		c1.004,3.476,2.597,6.78,4.694,9.73c0.731,1.025,1.578,2.054,2.753,2.507c0.821,0.317,1.766,0.339,2.478,0.853
		c0.928,0.675,1.232,2.042,2.26,2.548c1.128,0.558,2.487-0.207,3.722,0.032c1.866,0.361,2.641,2.75,4.387,3.501
		c0.906,0.39,1.941,0.275,2.921,0.156c2.758-0.341,5.613-0.718,8.171-1.866c2.505-1.125,3.808-3.617,6.09-4.787
		c0.821-0.419,1.825-0.472,2.538-1.055c1.221-0.994,1.111-3.126,2.458-3.942c0.648-0.392,1.466-0.36,2.163-0.658
		c2.044-0.875,1.978-3.847,3.406-5.552c1.055-1.262,2.858-1.717,3.88-3.003c1.109-1.393,1.053-3.426,2.066-4.887
		c1.769-2.553,5.557-2.132,8.595-2.777c3.077-0.655,5.968-2.675,9.082-2.222c2.278,0.334,4.377,1.986,6.648,1.605
		c1.447-0.241,2.626-1.269,3.99-1.807c3.756-1.479,7.868,0.989,10.887,3.671c3.021,2.682,6.12,5.883,10.149,6.168
		c4.463,0.316,8.607-3.131,13.052-2.609c5.747,0.675,8.911,7.44,14.417,9.228c2.724,0.884,5.659,0.443,8.536,0.446
		C1870.492,798.852,1848.746,739.57,1821.031,683.766z"/>
	<path style="fill:#17A9E2;" d="M879.838,1745.498c8.741-57.919-3.201-117.846,12.929-174.158
		c5.771-20.146-6.982-41.505-23.686-54.16c-16.702-12.658-37.081-19.33-55.401-29.508c-37.489-20.826-66.039-57.164-77.405-98.516
		c-2.385-8.677-4.025-17.998-1.338-26.585c2.119-6.779,6.726-12.438,10.933-18.161c20.945-28.48,33.998-62.704,37.34-97.9
		c2.984-31.447-6.12-69.401-35.737-80.385c-6.305-2.339-13.145-3.245-19.12-6.327c-7.762-4-13.247-11.208-19.018-17.761
		c-23.233-26.372-55.15-44.965-89.55-52.165c-13.649-2.855-27.686-3.981-41.035-8.012c-35.289-10.66-61.968-40.774-77.654-74.134
		c-15.688-33.362-22.026-70.2-29.115-106.375c-2.088-10.651-4.989-22.414-14.083-28.334c-9.096-5.918-25.135,0.784-22.728,11.364
		c0.658,2.897,2.514,5.345,4.226,7.771c11.703,16.578,18.626,36.49,19.73,56.753c0.2,3.656,0.124,7.618-2.053,10.563
		c-4.736,6.407-15.688,2.95-19.905-3.81c-4.219-6.76-4.382-15.201-6.66-22.835c-2.136-7.152-6.132-13.576-9.878-20.032
		c-11.825-20.377-21.547-41.892-31.245-63.364c-9.883-21.881-19.769-43.759-29.652-65.64c-4.141-9.172-8.353-18.607-8.913-28.655
		c-0.336-6.02,0.658-12.025,1.026-18.042c1.961-32.148-13.941-62.66-32.897-88.764c-68.014,122.083-106.816,262.667-106.816,412.335
		c0,409.454,290.024,751.154,675.845,830.925c-0.285-7.825-3.712-16.972-6.833-24.334
		C865.076,1829.359,873.697,1786.198,879.838,1745.498z M767.407,1735.491c-9.076,5.72-20.553,5.625-31.252,4.802
		c-104.28-8.015-202.75-71.086-253.636-162.46c-20.127-36.139-34.641-77.968-68.085-102.312
		c-17.613-12.823-39.454-19.832-54.733-35.364c-29.788-30.282-25.45-79.644-30.945-118.558
		c-7.323-51.854-33.36-102.287-52.616-151.44c-8.373-21.369-16.899-44.216-12.4-66.723c2.046-10.241,6.763-20.112,6.387-30.548
		c-0.348-9.708-5.067-18.653-7.479-28.061c-3.506-13.659-2.093-28.039-0.66-42.068c2.947-28.835,5.895-57.671,8.842-86.504
		c1.55-15.157,3.215-30.723,10.198-44.268c6.979-13.544,20.592-24.794,35.822-24.382c26.585,0.721,39.652,32.826,41.946,59.321
		c0.641,7.393,1.126,15.137,1.959,22.806c2.151,19.815,6.619,39.114,22.066,50.473c9.8,7.209,22.862,9.932,30.872,19.087
		c11.727,13.401,7.946,34.821,17.327,49.956c17.32,27.944,71.094,23.954,76.151,56.438c3.271,21.026-7.525,38.002,11.339,53.172
		c16.214,13.041,44.175,11.038,62.205,23.052c25.128,16.748,34.499,49.437,35.425,79.62c0.928,30.183-4.65,60.506-1.028,90.487
		c5.406,44.719,32.404,86.326,71.043,109.481c23.488,14.078,51.98,22.599,67.81,44.945c27.255,38.468,1.7,92.531,12.353,138.456
		c3.693,15.924,11.759,30.621,14.955,46.65C784.467,1707.577,781.237,1726.78,767.407,1735.491z"/>
	<path style="fill:#81BC48;" d="M1193.034,1473.816c-5.803-10.29,0.443-22.867,5.678-33.455
		c14.989-30.314,21.98-64.541,20.078-98.304c-0.624-11.077-2.74-23.169-11.215-30.326c-8.475-7.159-24.831-4.592-26.719,6.341
		c-5.179-15.384-28.378-7.985-44.083-12.078c-5.588-1.457-10.526-4.702-15.179-8.124c-12.334-9.07-23.454-19.778-33.021-31.727
		c-4.991-6.236-9.559-12.809-13.656-19.664c-3.401-5.69-5.474-13.664-9.82-18.514c-2.631-2.935-7.167-4.565-10.623-2.67
		c-3.306,1.813-5.104,6.395-8.865,6.643c-4.456,0.294-6.65-5.64-10.792-7.308c-3.849-1.549-8.373,0.97-12.309-0.343
		c-6.148-2.049-7.903-12.251-14.382-12.063c-3.439,0.1-6.407,3.454-9.783,2.782c-3.267-0.648-4.565-4.468-6.302-7.31
		c-2.894-4.736-8.066-7.491-12.899-10.22c-14.584-8.236-28.185-18.209-40.426-29.639c-0.901-0.84-1.946-1.749-3.177-1.678
		c-1.303,0.075-2.251,1.203-3.174,2.127c-4.263,4.266-10.833,4.94-16.324,2.918c-2.129-0.784-3.749-2.456-5.786-3.264
		c-2.387-0.945-4.801,1.269-5.909-2.382c-0.407-1.342-0.422-2.821-1.106-4.046c-1.554-2.78-6.551-2.259-7.496,0.784
		c-0.358,1.152-0.192,2.392-0.255,3.596c-0.193,3.62-2.67,7.016-6.056,8.302c-3.386,1.286-7.496,0.392-10.039-2.188
		c-2.511-2.546-3.581-6.504-6.694-8.261c-1.349-0.762-3.033-1.069-4.007-2.277c-1.423-1.762-0.672-4.629-2.144-6.349
		c-1.491-1.737-4.453-1.384-6.078-2.996c-2.043-2.027-0.689-5.452,0.658-7.995c1.35-2.543,2.36-6.205,0.01-7.866
		c-1.464-1.035-4-1.062-4.302-2.828c-0.166-0.962,0.536-1.841,0.753-2.791c0.48-2.093-1.62-4.073-3.759-4.249
		c-2.139-0.173-4.163,0.921-5.954,2.105c-7.14,4.721-12.909,11.493-16.436,19.294c-2.626,5.81-4.548,12.772-10.239,15.647
		c-2.434,1.228-5.225,1.488-7.942,1.73c-5.222,0.46-10.545,0.916-15.659-0.242c-3.388-0.767-6.77-2.244-10.207-1.712
		c-1.459,0.226-2.85,0.811-4.317,0.996c-4.107,0.521-7.98-3.15-11.435-4.965c-4.212-2.212-8.194-4.505-11.759-7.703
		c-6.811-6.109-11.834-14.473-12.21-23.783c-0.287-7.196,1.501-15.931-4.178-20.358c-3.87-3.018-9.588-2.353-13.754-4.946
		c-9.81-6.105-3.944-23.948-13.218-30.835c-7.284-5.411-18.38,0.168-26.438-4c-9.374-4.848-10.015-20.319-20.063-23.539
		c-10.972-3.513-23.018,11.218-32.911,5.313c-3.715-2.217-5.394-6.633-6.811-10.723c-7.864-22.643-15.725-45.284-23.586-67.927
		c-3.961-11.411-7.754-24.685-1.383-34.943c4.195-6.756,11.836-10.415,19.067-13.722c25.123-11.496,50.246-22.989,75.369-34.485
		c12.58,2.592,25.157,5.184,37.735,7.778c4.253,6.743,5.922,5.372,13.308,2.368c7.383-3.003,12.884-9.257,17.946-15.418
		c12.782-15.542,24.633-31.849,35.477-48.801c28.046-19.608,32.251-58.745,33.866-92.928c16.332,5.615,38.945,8.95,46.831-6.414
		c4.614-8.984,1.111-19.759,0.826-29.851c-0.285-10.095,6.633-22.638,16.46-20.314c10.711,2.531,10.049,17.925,6.845,28.453
		c21.21-2.665,41.62-11.442,58.146-25.006c9.802-8.044,18.796-21.579,12.482-32.575c-12.945,1.216-26.356,1.815-38.592-2.582
		c-12.234-4.399-23.094-14.933-24.158-27.888c-1.067-12.957,10.923-26.47,23.676-23.941c19.54,3.87,23.147,36.356,42.931,38.684
		c16.867,1.988,25.647-19.221,28.748-35.917l-12.446-6.964c5.869-10.302,9.277-27.386-2.156-30.524
		c-5.376-1.476-12.426,1.316-15.924-3.026c-3.744-4.648,1.313-10.967,3.44-16.543c2.672-7.001-0.171-15.683-6.465-19.747
		c-6.295-4.06-15.379-3.077-20.658,2.241c2.641-17.905-3.362-36.889-15.82-50.021c-1.932-2.036-4.312-4.064-7.121-4.017
		c-2.928,0.049-5.279,2.312-7.305,4.426c-8.663,9.038-17.325,18.078-25.988,27.116c-6.748-12.156-13.71-24.578-24.232-33.669
		c-10.519-9.089-25.5-14.314-38.602-9.656c-18.227,6.482-25.613,28.68-25.327,48.022c0.21,14.17,3.177,28.27,2.326,42.419
		c-0.853,14.146-6.539,29.186-18.928,36.066c-2.838,1.576-6.109,2.685-9.31,2.134c-16.738-2.889-4.931-37.369-21.232-42.138
		c-2.836-0.831-5.874-0.368-8.816-0.609c-8.672-0.711-15.52-7.245-22.782-12.039c-7.262-4.792-17.723-7.725-24.088-1.796
		c-2.246-19.978-23.488-35.642-43.235-31.88c10.11-18.826,26.032-34.475,45.028-44.256c17.834-9.184,25.579-17.759,14.86-37.221
		c-0.624-1.13-1.354-2.294-2.509-2.872c-0.974-0.487-2.141-0.497-3.086-1.036c-1.538-0.879-2.013-2.823-2.929-4.338
		c-2.986-4.933-10.065-4.789-15.78-4.037c1.461-3.663,2.207-7.837,0.831-11.535c-1.379-3.695-5.396-6.58-9.228-5.644
		c-5.53,1.354-7.532,9.147-13.064,10.502c-4.003,0.981-9.622-1.289-11.498,2.382c-0.39,0.76-0.507,1.683-1.109,2.292
		c-0.892,0.906-2.39,0.691-3.6,0.304c-18.6-5.951-10.957-35.997-36.877-24.814c-7.425,3.206-15.177,8.07-22.974,5.922
		c-7.398-2.039-11.656-9.596-17.708-14.314c-5.286-4.121-11.754-5.773-18.424-5.756C466.597,441.81,380.726,537.437,318.947,648.326
		c18.955,26.105,34.858,56.616,32.897,88.764c-0.368,6.017-1.362,12.022-1.026,18.042c0.56,10.048,4.773,19.483,8.913,28.655
		c9.883,21.881,19.769,43.759,29.652,65.64c9.698,21.471,19.42,42.987,31.245,63.364c3.747,6.456,7.742,12.88,9.878,20.032
		c2.277,7.634,2.441,16.075,6.66,22.835c4.217,6.76,15.17,10.217,19.905,3.81c2.178-2.945,2.254-6.906,2.053-10.563
		c-1.104-20.263-8.027-40.175-19.73-56.753c-1.712-2.426-3.569-4.874-4.226-7.771c-2.407-10.58,13.632-17.281,22.728-11.364
		c9.094,5.919,11.995,17.683,14.083,28.334c7.089,36.175,13.427,73.013,29.115,106.375c15.686,33.36,42.365,63.474,77.654,74.134
		c13.349,4.032,27.386,5.157,41.035,8.012c34.4,7.201,66.317,25.793,89.55,52.165c5.771,6.553,11.257,13.761,19.018,17.761
		c5.975,3.082,12.816,3.988,19.12,6.327c29.617,10.984,38.721,48.937,35.737,80.385c-3.342,35.196-16.395,69.42-37.34,97.9
		c-4.207,5.722-8.814,11.381-10.933,18.161c-2.687,8.587-1.048,17.908,1.338,26.585c11.367,41.352,39.917,77.69,77.405,98.516
		c18.319,10.178,38.699,16.85,55.401,29.508c16.704,12.655,29.457,34.015,23.686,54.16c-16.13,56.312-4.188,116.239-12.929,174.158
		c-6.141,40.7-14.762,83.861,1.306,121.754c3.121,7.362,6.548,16.509,6.833,24.334c14.443,2.984,29.016,5.62,43.72,7.861
		c0.499-0.631,0.999-1.264,1.498-1.895c14.124-17.864,28.865-37.274,30.263-60.003c0.682-11.055-1.805-22.762,2.794-32.835
		c8.222-17.995,33.148-20.217,47.61-33.717c10.885-10.161,14.69-25.583,21.888-38.616c18.86-34.146,63.157-56.694,62.848-95.701
		c-0.063-7.773-1.915-16.199,2.09-22.862c7.408-12.326,27.272-8.09,38.514-17.062c7.06-5.632,9.388-15.466,15.768-21.861
		c4.782-4.789,11.367-7.203,17.591-9.866c15.406-6.587,30.387-16.073,38.818-30.555c8.429-14.48,8.473-34.789-3.454-46.56
		C1203.034,1483.082,1196.412,1479.803,1193.034,1473.816z"/>
	<path style="fill:#44C0ED;" d="M766.318,1644.897c-10.653-45.925,14.902-99.988-12.353-138.456
		c-15.83-22.346-44.322-30.867-67.81-44.945c-38.638-23.155-65.637-64.763-71.043-109.481c-3.622-29.981,1.956-60.304,1.028-90.487
		c-0.926-30.183-10.297-62.872-35.425-79.62c-18.029-12.015-45.99-10.012-62.205-23.052c-18.864-15.169-8.068-32.146-11.339-53.172
		c-5.057-32.484-58.831-28.494-76.151-56.438c-9.381-15.135-5.6-36.555-17.327-49.956c-8.01-9.154-21.072-11.878-30.872-19.087
		c-15.447-11.359-19.915-30.658-22.066-50.473c-0.833-7.669-1.318-15.413-1.959-22.806c-2.294-26.495-15.362-58.6-41.946-59.321
		c-15.23-0.412-28.842,10.838-35.822,24.382c-6.982,13.545-8.648,29.111-10.198,44.268c-2.948,28.833-5.895,57.669-8.842,86.504
		c-1.433,14.029-2.846,28.41,0.66,42.068c2.412,9.408,7.13,18.353,7.479,28.061c0.375,10.436-4.341,20.307-6.387,30.548
		c-4.499,22.507,4.027,45.354,12.4,66.723c19.257,49.152,45.293,99.586,52.616,151.44c5.495,38.913,1.157,88.275,30.945,118.558
		c15.279,15.532,37.12,22.541,54.733,35.364c33.444,24.343,47.958,66.173,68.085,102.312
		c50.887,91.374,149.357,154.445,253.636,162.46c10.699,0.823,22.176,0.918,31.252-4.802c13.83-8.711,17.06-27.915,13.866-43.944
		C778.077,1675.518,770.011,1660.821,766.318,1644.897z"/>
	<path style="fill:#44C0ED;" d="M1635.698,1393.124c1.235-14.826,10.056-28.193,11.42-43.004
		c2.88-31.262-29.978-56.626-61.367-57.118c-31.389-0.489-60.153,16.568-85.958,34.446c-25.807,17.876-51.742,37.657-82.497,43.946
		c-17.452,3.569-35.564,2.555-53.099,5.693c-50.095,8.967-90.894,55.398-93.342,106.229c-0.945,19.625,3.191,39.542-0.626,58.816
		c-14.012,70.755-119.51,88.526-141.081,157.357c-3.815,12.173-4.675,25.347-10.436,36.731
		c-9.768,19.301-31.052,29.184-49.315,40.777c-32.809,20.828-56.127,81.518-2.762,94.443c20.56,4.982,42.051-0.694,63.208-0.721
		c12.076-0.017,24.414,1.792,36.058-1.406c25.281-6.943,39.235-34.716,62.828-46.151c29.669-14.382,66.024,0.456,97.634-8.92
		c39.128-11.605,58.823-55.464,93.213-77.437c35.698-22.811,82.539-19.318,120.765-37.581c38.831-18.551,63.768-56.816,86.38-93.435
		c26.568-43.028,53.635-94.343,35.954-141.719C1653.71,1440.052,1633.567,1418.671,1635.698,1393.124z"/>
	<path style="fill:#44C0ED;" d="M1249.401,1258.167c30.198,7.834,20.222,39.505,40.052,53.42
		c25.303,17.754,50.887-17.817,75.235-20.4c19.193-2.036,41.32,11.603,56.268-0.604c7.41-6.051,11.025-17.425,10.972-26.718
		c-0.063-11.17-8.882-21.55-7.042-32.602c0.533-3.215,2.217-6.197,2.407-9.449c0.385-6.57-5.325-11.898-11.164-14.933
		c-5.837-3.035-12.475-4.984-17.05-9.718c-12.136-12.557-2.112-34.248-8.487-50.509c-3.732-9.515-12.567-15.868-19.232-23.615
		c-12.76-14.826-17.586-36.105-12.473-54.987c3.759-13.878,12.39-28.848,5.525-41.483c-2.779-5.111-7.781-8.814-10.202-14.105
		c-6.139-13.413,6.76-27.537,18.918-35.893c12.158-8.358,26.651-19.189,24.718-33.815c-0.567-4.293-2.604-8.353-2.655-12.682
		c-0.188-15.732,23.418-21.476,27.428-36.689c1.895-7.182-0.918-15.69,3.437-21.705c3.25-4.487,10.327-8.036,8.424-13.24
		c-0.955-2.609-3.871-3.825-5.934-5.691c-7.569-6.843-1.562-19.959,7.037-25.452c8.599-5.493,19.467-7.724,26.295-15.308
		c9.997-11.106,8.112-30.217,19.756-39.583c14.226-11.437,36.762,0.409,53.128-7.679c6.787-3.355,12.458-10.097,20.027-9.961
		c4.943,0.088,9.284,3.194,14.061,4.461c17.213,4.563,34.704-15.126,51.42-8.982c6.802,2.499,11.378,8.709,16.482,13.854
		c5.106,5.143,12.321,9.676,19.228,7.484c4.236-1.347,7.364-4.967,11.403-6.816c11.189-5.121,23.549,4.989,29.664,15.666
		c8.909,15.557,16.246,34.173,33.901,41.162c31.854,12.604,74.187,9.337,92.757-19.449c16.987-26.329,3.004-66.952-26.59-77.25
		c-9.215-3.203-19.105-3.751-28.84-4.414c-62.109-4.221-128.928-16.899-170.904-62.874c-10.468-11.469-23.968-24.677-31.917-37.827
		c-8.565-14.171-14.614-21.766-30.124-29.92c-14.307-7.523-30.331-21.574-24.57-36.677c2.755-7.223,10.358-13.425,8.531-20.937
		c-2.141-8.792-15.676-10.987-17.525-19.844c-0.996-4.78,1.964-9.471,2.314-14.341c0.775-10.745-11.476-18.37-22.244-18.031
		c-10.765,0.341-20.621,5.763-30.96,8.784c-10.341,3.018-23.155,2.906-29.976-5.43c-7.859,8.699-21.31,11.805-32.187,7.433
		c-15.759-6.334-29.462-26.522-44.682-18.987c-9.313,4.609-15.401,18.984-25.233,15.623c-4.037-1.379-6.507-5.567-10.38-7.359
		c-9.62-4.448-18.67,7.603-29.011,9.917c-11.488,2.57-23.625-7.374-34.626-3.189c-7.418,2.821-12.673,11.647-20.58,10.974
		c-9.345-0.794-12.585-13.927-21.333-17.306c-7.532-2.911-15.422,2.439-23.074,5.018c-14.694,4.955-32.421-1.63-40.317-14.977
		c-3.099-5.24-4.845-11.369-9.018-15.802c-3.803-4.042-9.225-6.222-13.179-10.117c-9.316-9.186-7.778-24.258-6.745-37.3
		c1.03-13.043-0.887-29.087-12.855-34.373c-13.486-5.956-27.649,6.543-42.192,8.948c-16.446,2.721-32.402-8.127-42.422-21.447
		c-10.021-13.321-15.997-29.238-25.132-43.182c-21.939-33.486-61.586-53.228-101.542-55.725
		c-17.418-1.086-35.018,0.824-51.798,5.623c-25.963,7.43-49.498,21.562-71.625,37.043c-11.009,7.701-22.052,16.095-28.824,27.698
		c-8.507,14.572-4.648,28.533,2.017,42.855c5.016,10.777,10.215,27.596,21.698,32.733c7.769,3.474,13.574,9.847,10.87,19.023
		c-1.634,5.552-5.559,10.078-9.047,14.699c-4.811,6.37-8.967,13.237-12.378,20.456c-2.611,5.527-4.633,12.553-0.848,17.354
		c3.817,4.843,12.156,5.296,14.404,11.038c2.607,6.655-5.306,15.301-0.543,20.631c0.926,1.035,2.207,1.695,3.527,2.131
		c7.501,2.48,15.871-2.139,20.254-8.709c4.385-6.573,5.703-14.653,6.918-22.458c1.048-6.743,2.097-13.486,3.148-20.227
		c0.563-3.627,1.15-7.325,2.796-10.607c3.81-7.591,12.365-11.396,20.429-14.071c14.336-4.76,30.575-7.684,44.139-1.033
		c10.541,5.17,19.535,15.971,31.213,14.756c10.07-1.05,19.242-11.167,28.682-7.505c8.743,3.393,10.619,16.587,19.542,19.474
		c4.166,1.347,8.675-0.027,13.052,0.027c6.714,0.085,12.989,4.17,16.495,9.785c3.208,5.145,1.812,11.503,5.349,16.258
		c6.373,8.568,20.677,5.34,26.758,14.516c2.633,3.976,2.47,9.124,2.025,13.871c-0.446,4.751-1.036,9.764,0.945,14.1
		c1.981,4.338,7.676,7.362,11.664,4.746c1.481-0.972,2.933-2.675,4.628-2.154c1.031,0.317,1.625,1.362,2.119,2.319
		c5.443,10.55,10.063,22.104,20.87,28.139c9.698,5.418,21.089,7.108,31.028,12.078c27.968,14.894,23.432,64.824-6.758,74.436
		c-20.914,6.658-49.571-1.805-61.333,16.728c-10.236,16.131,3.55,37.011,1.771,56.034c-3.376,36.16-54.667,43.352-77.132,71.888
		c-11.381,14.458-14.497,33.632-22.794,50.053c-25.963,51.379-100.165,72.933-108.838,129.844
		c-4.719,30.952,14.039,62.104,40.232,79.259c26.192,17.155,58.462,22.426,89.766,23.133c46.704,1.055,103.194-2.738,129.294,36.007
		c6.411,9.518,10.397,21.152,19.598,28.014c14.446,10.772,35.527,5.483,51.907,12.996c37.442,17.172,26.706,85.106,65.142,99.922
		C1213.272,1260.802,1232.264,1253.724,1249.401,1258.167z"/>
	<path style="fill:#71B22D;" d="M602.638,999.085c-4.507-15.064-8.238-30.395-10.314-45.983c-0.531-3.998-0.955-8.014-1.001-12.046
		c-0.207-18.27,7.588-36.665,21.744-47.995c16.884-13.517,31.985-28.981,48.755-42.645c17.418-14.19,40.256-25.016,61.959-19.208
		c1.125,12.933,6.56,29.849,19.513,28.987c5.401-0.361,9.905-4.078,14-7.618c11.181-9.669,22.36-19.337,33.542-29.004
		c6.785-5.866,13.715-11.915,17.964-19.812c7.785-14.47,5.15-32.002,5.881-48.417c0.731-16.414,7.924-35.532,24.015-38.862
		c4.921-1.016,10.188-0.38,14.86-2.227c15.795-6.246,10.424-31.109,20.777-44.575c5.91-7.686,17.379-10.473,26.156-6.351
		c6.531,3.064,11.106,9.181,17.221,13.011c6.115,3.827,15.788,4.258,19.101-2.151c3.247-6.285-2.37-13.8-8.758-16.838
		c-6.388-3.037-13.849-3.786-19.634-7.856c-8.029-5.649-10.867-16.607-9.481-26.326c1.386-9.72,6.248-18.546,11.025-27.123
		c3.425-6.154,7.026-12.507,12.729-16.641c5.701-4.134,14.141-5.384,19.622-0.965c2.734,2.205,4.387,5.481,6.892,7.942
		c6.402,6.29,18.375,5.296,23.652-1.963c5.276-7.262,2.526-18.957-5.433-23.104c-5.693-2.967-13.067-2.399-17.924-6.592
		c-10.94-9.44,2.375-29.915-6.655-41.191c-6.612-8.253-19.961-5.145-28.877,0.538c-8.913,5.685-17.825,13.542-28.363,12.682
		c-3.532-11.291-10.385-24.987-22.178-24.046c-7.172,0.572-12.575,6.775-16.017,13.094c-8.419,15.459-9.9,33.591-12.129,51.05
		c-2.229,17.462-5.79,35.724-17.235,49.101c-11.444,13.374-33.199,19.437-46.994,8.502c-8.89-7.045-12.207-18.775-17.164-28.977
		c-4.958-10.202-14.251-20.451-25.503-19.013c-9.084,1.162-18.416,9.678-26.068,4.648c-3.225-2.119-4.682-6.01-6.502-9.413
		c-9.259-17.328-29.934-24.31-46.339-35.121c-16.404-10.811-29.798-34.08-17.164-49.127c4.845-5.771,12.297-8.517,19.347-11.18
		c12.008-4.534,24.726-10.265,30.921-21.505c6.197-11.237,1.05-29.016-11.715-30.353c-10.658-1.116-20.582,9.25-30.957,6.558
		c-5.513-1.432-9.406-6.205-14.156-9.345c-10.215-6.755-25.206-4.977-33.554,3.983c6.18-6.633-14.331-21.053-18.495-22.254
		c-12.019-3.476-15.678,0.904-25.111,8.002c-21.267,16.01-40.207,37.776-58.173,57.301c-37.303,40.538-70.594,84.767-99.159,131.873
		c-16.263,26.823-31.503,58.031-23.647,88.399c2.37,9.16,6.763,17.703,9.08,26.874c2.621,10.371,2.514,21.201,3.417,31.861
		c2.38,28.053,11.798,54.965,21.135,81.525c4.333,12.326,13.698,27.432,26.194,23.627c9.07-2.762,12.314-14.085,19.978-19.668
		c10.521-7.667,26.397-1.696,33.893,8.947c16.684,23.686,6.129,56.531,20.29,81.693c3.432,6.1,8.034,11.523,11.016,17.856
		c10.075,21.408,0.368,49.915,15.23,68.324c3.749,4.643,8.741,8.112,12.848,12.441c7.211,7.598,11.415,17.52,17.681,25.91
		c6.265,8.392,16.093,15.635,26.414,13.859c4.544-0.782,8.651-3.237,13.17-4.153c5.71-1.159,11.9,0.341,16.448,3.98
		c3.744,2.999,8.278,7.659,12.341,5.111c4.107-2.577,1.759-8.87-0.794-12.992C615.429,1037.137,608.367,1018.23,602.638,999.085z"/>
	<path style="fill:#71B22D;" d="M941.487,1823.603c-0.348-15.817,2.424-32.601,12.709-44.621
		c6.751-7.888,16.131-13.03,23.672-20.166c13.732-12.999,20.463-31.693,24.862-50.08c2.212-9.242,4.168-19.035,10.358-26.246
		c11.818-13.764,34.862-13.423,46.156-27.62c12.721-15.99,3.63-41.077,13.705-58.853c14.222-25.091,56.684-21.013,70.877-46.119
		c3.645-6.451,5.177-14.561,11.152-18.94c3.837-2.814,8.799-3.496,13.121-5.483c11.676-5.374,16.957-20.185,14.116-32.721
		c-2.84-12.533-12.217-22.735-22.974-29.769c-3.143-2.053-6.566-4.032-8.424-7.291c-4.685-8.219,3.018-17.657,9.208-24.814
		c15.14-17.506,24.122-40.231,25.037-63.357c0.224-5.62-0.684-12.365-5.737-14.833c-3.637-1.776-7.929-0.536-11.917,0.161
		c-26.431,4.619-49.956-16.202-67.937-36.119c-8.151-9.028-17.25-18.831-29.328-20.292c-8.853-1.075-20.449,1.42-24.599-6.473
		c-2.282-4.341-0.93-10.365-4.417-13.815c-4.872-4.819-13.43,0.236-19.868-2.11c-7.564-2.757-8.102-13.547-13.949-19.082
		c-7.284-6.896-20.285-3.574-27.849-10.166c-4.068-3.542-5.869-9.464-10.587-12.078c-7.101-3.932-16.46,1.798-23.919-1.403
		c-3.474-1.491-5.874-4.66-8.565-7.318c-10.336-10.203-25.569-13.216-39.866-15.764c-5.342-0.95-10.982-1.881-16.081-0.027
		c-7.608,2.762-14.129,11.479-21.766,8.799c-13.469-4.726,1.701-28.784-8.238-39.028c-3.432-3.537-8.877-4.08-13.803-3.892
		c-11.644,0.443-23.744,4.173-31.449,12.911c-15.087,17.103-0.935,22.823,4.358,34.969c7.32,16.797,3.871,40.417-2.999,56.59
		c-2.129,5.011-4.816,10.217-3.988,15.598c0.692,4.485,3.734,8.248,5.064,12.587c5.196,16.958-15.556,29.213-25.503,43.898
		c-11.973,17.676-6.192,44.825,11.942,56.092c5.953,3.698,12.87,5.817,18.363,10.171c4.95,3.924,8.393,9.384,12.008,14.565
		c16.404,23.503,38.251,43.184,63.33,57.057c5.667,3.133,11.576,6.034,16.305,10.458c7.961,7.452,11.647,18.302,17.827,27.289
		c4.607,6.697,10.719,12.541,13.579,20.151c7.618,20.266-10.653,41.632-9.194,63.232c0.543,8.056,3.857,15.913,3.092,23.949
		c-1.457,15.313-17.191,27.038-16.677,42.409c0.273,8.124,5.172,15.493,5.8,23.596c1.023,13.165-9.206,24.689-10.675,37.81
		c-1.676,14.945,8.171,28.938,8.76,43.966c0.461,11.666-4.667,22.729-9.379,33.411c-4.714,10.682-9.213,22.188-7.427,33.725
		c1.785,11.54,12.331,22.521,23.829,20.482c8.792-1.561,14.95-10.024,17.038-18.706
		C942.727,1841.608,941.684,1832.531,941.487,1823.603z"/>
	<path style="fill:#71B22D;" d="M1824.441,885.546c-17.145-4.714-34.271,5.751-50.273,13.505
		c-16.005,7.756-37.868,11.969-49.432-1.54c-4.39-5.128-6.48-12.139-11.693-16.426c-14.665-12.061-38.239,6.662-55.167-1.939
		c-9.413-4.782-13.033-16.244-14.848-26.643c-4.987-28.538-12.232-34.621-37.773-31.198c-17.993,2.409-55.581,7.761-72.485,15.52
		c-17.571,8.063-25.15,28.409-31.854,46.543c-18.392,49.751-42.755,97.291-72.399,141.276c-2.651,3.929-5.454,8.216-5.187,12.948
		c0.451,8.005,9.374,13.413,10.322,21.374c1.342,11.279-13.803,20.969-9.683,31.556c1.773,4.558,6.551,7.06,9.992,10.534
		c10.112,10.197,7.652,26.918,11.401,40.782c4.421,16.353,19.033,29.469,35.763,32.104c16.733,2.639,34.67-5.347,43.905-19.547
		c5.438,9.53,11.618,19.727,21.832,23.737c6.426,2.521,13.566,2.195,20.46,1.832c33.578-1.771,67.154-3.545,100.731-5.315
		c7.498-0.395,15.649-0.612,21.749,3.766c6.1,4.378,7.678,15.26,1.067,18.816c14.266-7.676,36.624,15.552,41.598,26.151
		c7.104,15.138-6.156,37.72,14.729,45.081c3.167,1.116,6.755,1.54,9.218,3.823c2.015,1.868,2.875,4.638,3.654,7.274
		c2.757,9.316,5.544,18.906,4.682,28.582c-0.572,6.421-2.745,12.677-2.684,19.123c0.129,13.83,10.455,27.115,6.736,40.436
		c-2.404,8.621-10.397,15.286-11.11,24.207c-0.502,6.236,2.726,12.207,2.984,18.458c0.185,4.509-1.176,8.921-2.526,13.228
		c-3.542,11.306-7.084,22.611-10.626,33.917c-2.848,9.094-5.72,18.763-3.381,28.002c1.186,4.685,3.649,8.931,6.083,13.109
		c2.409,4.134,4.816,8.268,7.226,12.402c6.358-13.376,12.714-26.753,19.072-40.131c8.775-18.463,17.552-36.933,25.668-55.701
		c9.671-22.356,18.444-45.21,24.315-68.886c5.05-20.378,11.792-39.07,17.744-59.247c3.927-13.313,5.769-27.135,7.598-40.894
		c1.518-11.432,3.038-22.867,4.558-34.3c4.638-34.913,9.282-69.863,11.352-105.023c3.308-56.192,0.003-112.772-9.827-168.199
		C1854.063,916.844,1845.788,891.417,1824.441,885.546z"/>
	<path style="fill:#71B22D;" d="M1039.853,303.269c3.773,7.464,12.412,13.863,20.134,10.653c3.54-1.471,6.263-4.741,10.019-5.498
		c7.603-1.533,13.805,7.832,21.545,7.349c7.196-0.448,10.982-8.753,17.201-12.402c6.183-3.628,13.961-2.234,20.972-0.733
		c14.769,3.167,32.053,8.534,36.416,22.996c1.415,4.697,1.181,9.788,2.77,14.429c1.91,5.583,6.341,10.156,7.595,15.922
		c2.058,9.454-4.821,18.188-9.077,26.877c-4.258,8.687-3.964,22.258,5.398,24.694c5.091,1.325,10.656-1.581,15.657,0.053
		c3.491,1.14,6.448,4.414,10.092,3.966c3.732-0.456,5.301-4.146,7.428-6.702c2.326-2.799,5.245-5.199,8.487-6.872
		c6.792-3.506,15.172-4.083,22.244-1.06c11.16,4.768,18.611,17.157,30.602,19.033c7.128,1.113,14.275-1.871,20.409-5.669
		c6.134-3.798,11.764-8.487,18.365-11.396c6.602-2.911,14.702-3.766,20.763,0.144c4.411,2.845,7.055,7.727,9.062,12.577
		c2.007,4.85,3.61,9.961,6.706,14.2c3.096,4.241,8.159,7.539,13.355,6.794c7.841-1.125,13.249-10.75,21.115-9.803
		c2.943,0.354,5.484,2.207,7.63,4.254c2.421,2.312,5.038,8.261,8.417,8.716c4.536,0.611,7.515-4.003,9.408-7.16
		c2.351-3.919,5.705-6.996,10.295-7.995c6.042-1.316,12.246,1.137,17.671,4.104c5.423,2.967,10.677,6.558,16.731,7.805
		c2.051,0.423,4.258,0.548,6.166-0.314c1.632-0.741,2.865-2.122,4.097-3.421c4.212-4.443,8.969-8.365,14.132-11.656
		c3.444-2.195,7.14-4.136,11.157-4.892c4.015-0.757,8.411-0.214,11.712,2.195c4.458,3.252,6.514,8.599,11.389,11.42
		c3.693,2.137,11.262,0.198,13.24,4.451c1.264,2.724,1.043,6.088,2.867,8.473c2.244,2.936,6.594,3.135,10.219,2.429
		c3.628-0.704,7.313-2.044,10.916-1.233c7.462,1.683,9.9,10.95,10.643,18.563c0.743,7.613,2.331,16.816,9.491,19.511
		c2.877,1.082,6.799,1.311,7.763,4.229c0.431,1.306,0.044,2.728-0.404,4.027c-2.388,6.899-6.539,14.419-3.328,20.974
		c2.114,4.319,7.301,8.131,5.659,12.65c-1.052,2.897-4.468,4.105-6.48,6.438c-5.978,6.928,2.996,14.699,3.004,21.316
		c0.007,6.838-8.229,13.569-1.793,20.387c6.044,6.397,19.405,0.385,24.266,7.723c0.889,1.339,1.301,2.943,2.124,4.324
		c2.777,4.645,9.272,5.42,14.57,4.322c5.296-1.097,10.399-3.537,15.81-3.404c5.971,0.151,11.739,3.735,14.517,9.023
		c3.006,5.73,2.49,12.568,3.201,18.997c0.711,6.431,3.615,13.615,9.834,15.396c9.52,2.726,18.299-9.086,28.053-7.376
		c14.473,2.536,13.406,29.863,28.041,31.164c5.888,0.521,11.167-4.003,17.072-4.254c8.489-0.363,14.521,7.681,20.083,14.108
		c5.559,6.424,15.267,12.175,21.936,6.913c1.513-1.194,2.67-2.865,4.397-3.722c6.838-3.398,16.151,10.309,20.356,4.426
		c2.892-4.049-8.024-25.347-9.878-29.666c-8.88-20.701-20.633-40.166-33.976-58.282c-84.574-114.833-198.36-207.971-327.641-268.187
		c-129.281-60.214-269.907-82.005-412.229-72.852c-5.966,15.958,14.726,28.078,22.872,43.042
		C1035.12,287.135,1036.077,295.805,1039.853,303.269z"/>
	<path style="fill:#71B22D;" d="M762.136,1162.028c-1.954-2.58-3.535-5.53-6.09-7.513c-3.956-3.072-9.659-3.362-13.284-6.816
		c-6.324-6.027-2.51-17.199-6.836-24.787c-5.128-8.991-20.031-10.275-22.492-20.331c-1.227-5.023,1.367-10.572-0.553-15.371
		c-2.346-5.866-9.946-7.367-16.256-7.055c-6.309,0.309-13.225,1.415-18.463-2.117c-3.812-2.57-5.795-7.036-8.621-10.662
		c-13.345-17.125-34.931,16.416-21.004,17.425c16.456,1.191,32.417,8.358,44.241,19.866c14.341,13.959,22.458,33.664,38.019,46.246
		c8.502,6.875,18.731,11.201,28.09,16.853c9.359,5.651,18.312,13.271,21.639,23.688c5.376-4.633,9.099-11.147,10.365-18.129
		C780.224,1175.197,768.679,1170.664,762.136,1162.028z"/>
</g>
</svg>
